<svg xmlns:dc="http://purl.org/dc/elements/1.1/" xmlns:cc="http://creativecommons.org/ns#" xmlns:rdf="http://www.w3.org/1999/02/22-rdf-syntax-ns#" xmlns:svg="http://www.w3.org/2000/svg" xmlns="http://www.w3.org/2000/svg" xmlns:sodipodi="http://sodipodi.sourceforge.net/DTD/sodipodi-0.dtd" xmlns:inkscape="http://www.inkscape.org/namespaces/inkscape" version="1.1" x="0px" y="0px" viewBox="0 0 100 125"><g transform="translate(0,-952.36218)"><path fill="white" style="text-indent:0;text-transform:none;direction:ltr;block-progression:tb;baseline-shift:baseline;color:#000000;enable-background:accumulate;" d="m 49.96875,959.39066 c -11.004812,0 -20,9.00299 -20,20.01735 0,10.33662 7.933048,18.87819 18.00312,19.89243 l 0,44.06316 a 1.9970794,1.9988115 0 1 0 3.99376,0 l 0,-44.06316 c 10.070072,-1.01424 18.00312,-9.55581 18.00312,-19.89243 0,-11.01436 -8.995188,-20.01735 -20,-20.01735 z m 0,4.05968 c 8.846421,0 15.943838,7.10358 15.943838,15.95767 0,8.85409 -7.097417,15.95767 -15.943838,15.95767 -8.846421,0 -15.943838,-7.10358 -15.943838,-15.95767 0,-8.85409 7.097417,-15.95767 15.943838,-15.95767 z m -0.187207,3.966 a 1.9990725,2.0008064 0 1 0 0.187207,3.99722 c 4.435037,0 7.98752,3.55556 7.98752,7.99445 a 1.9970798,1.9988119 0 1 0 3.993759,0 c 0,-6.59915 -5.387854,-11.99167 -11.981279,-11.99167 a 1.9970798,1.9988119 0 0 0 -0.187207,0 z" fill="#000000" fill-opacity="1" fill-rule="nonzero" stroke="none" marker="none" visibility="visible" display="inline" overflow="visible"/></g></svg>