<svg xmlns="http://www.w3.org/2000/svg" xmlns:xlink="http://www.w3.org/1999/xlink" viewBox="0 0 48 55" version="1.1" x="0px" y="0px"><title>4.2</title><desc>Created with Sketch.</desc><g stroke="none" stroke-width="1" fill="none" fill-rule="evenodd"><g fill="white"><g><path d="M26,9.83753887 L26,29.0029953 C26,30.1059106 25.1122704,31 24,31 C22.8954305,31 22,30.1050211 22,29.0029953 L22,9.8310591 L19.7410775,12.0899816 C18.9672318,12.8638273 17.7121862,12.8634336 16.9256923,12.0769397 C16.1446437,11.2958911 16.149254,10.0249509 16.9126504,9.26155447 L22.5955885,3.57861638 C22.9803726,3.19383221 23.4841305,3.00047404 23.990101,3 L24.0053662,3.00597076 C24.5132928,3.00705432 25.0183527,3.19903734 25.3979318,3.57861638 L31.0808699,9.26155447 C31.8547156,10.0354002 31.8543218,11.2904458 31.0678279,12.0769397 C30.2867793,12.8579883 29.0158392,12.853378 28.2524427,12.0899816 L26,9.83753887 Z M8,40 L40,40 L40,25.9907951 C40,24.8913093 40.8877296,24 42,24 C43.1045695,24 44,24.8982124 44,25.9907951 L44,42.0092049 C44,42.5585016 43.7784277,43.0558386 43.4179801,43.4160321 C43.052133,43.7773842 42.5540487,44 42.0027084,44 L5.99729162,44 C5.44727605,44 4.94918679,43.7792902 4.58798715,43.4200851 C4.22349185,43.0523814 4,42.5550497 4,42.0092049 L4,25.9907951 C4,24.8913093 4.88772964,24 6,24 C7.1045695,24 8,24.8982124 8,25.9907951 L8,40 Z"/></g></g></g></svg>